<?xml version="1.0" encoding="utf-8"?>
<!-- Generator: Adobe Illustrator 19.0.1, SVG Export Plug-In . SVG Version: 6.00 Build 0)  -->
<svg version="1.1" id="Слой_1" xmlns="http://www.w3.org/2000/svg" xmlns:xlink="http://www.w3.org/1999/xlink" x="0px" y="0px"
	 width="30px" height="27px" viewBox="0 0 30 27" style="enable-background:new 0 0 30 27;" xml:space="preserve">
<path class="st0" d="M15,18.6c-0.8,0-1.4,0.6-1.4,1.4c0,0.8,0.7,1.4,1.4,1.4c0.8,0,1.4-0.6,1.4-1.4C16.4,19.2,15.8,18.6,15,18.6z"/>
<path class="st0" d="M28.3,23.5c0.9-1.5,0.9-3.3,0-4.9l-9-15.2C18.4,1.9,16.8,1,15,1c-1.8,0-3.4,0.9-4.3,2.4l-9,15.3
	c-0.9,1.5-0.9,3.4,0,4.9C2.6,25.1,4.2,26,6,26h18C25.8,26,27.4,25.1,28.3,23.5z M26.4,22.4c-0.5,0.8-1.4,1.3-2.4,1.3H6
	c-1,0-1.9-0.5-2.3-1.3c-0.5-0.8-0.5-1.8,0-2.7l9-15.3C13.1,3.7,14,3.2,15,3.2c1,0,1.9,0.5,2.4,1.3l9,15.3
	C26.9,20.6,26.9,21.6,26.4,22.4z"/>
<path class="st0" d="M14.6,8.7c-0.7,0.2-1.1,0.8-1.1,1.5c0,0.4,0.1,0.9,0.1,1.3c0.1,1.7,0.2,3.4,0.3,5c0,0.6,0.5,1,1.1,1
	s1-0.4,1.1-1c0-0.3,0-0.7,0-1c0.1-1.1,0.1-2.2,0.2-3.3c0-0.7,0.1-1.4,0.1-2.1c0-0.3,0-0.5-0.1-0.7C16,8.9,15.3,8.5,14.6,8.7z"/>
</svg>
