<?xml version="1.0" encoding="utf-8"?>
<!-- Generator: Adobe Illustrator 19.0.1, SVG Export Plug-In . SVG Version: 6.00 Build 0)  -->
<svg version="1.1" id="Слой_1" xmlns="http://www.w3.org/2000/svg" xmlns:xlink="http://www.w3.org/1999/xlink" x="0px" y="0px"
	 width="48px" height="48px" viewBox="0 0 48 48" style="enable-background:new 0 0 48 48;" xml:space="preserve">
<style type="text/css">
	.st0{fill:none;}
</style>
<path class="st0" d="M16.1,25l-5.4,5.4v2.5h12.1v-2.8h-8l4.1-4.1c1.3-1.3,2.2-2.4,2.6-3.2c0.5-0.8,0.7-1.7,0.7-2.6
	c0-1.7-0.6-2.9-1.7-3.8c-1.1-1-2.4-1.4-3.9-1.4c-1.5,0-2.6,0.3-3.6,0.9c-1,0.6-1.8,1.5-2.5,2.6l2.4,1.4c1-1.5,2.2-2.2,3.6-2.2
	c0.8,0,1.5,0.3,2.1,0.8c0.6,0.5,0.8,1.1,0.8,1.8c0,0.7-0.3,1.4-0.8,2.1C18.1,22.8,17.2,23.8,16.1,25z"/>
<path class="st0" d="M35.4,33.1v-4.5h2.2v-2.7h-2.2v-3.2h-2.8v3.2h-4.2l6.4-10.5h-3.2L25,26v2.6h7.6v4.5H35.4z"/>
<path class="st0" d="M24.1,3c5.2,0,10.3,1.9,14.2,5.5l-5-0.4l-0.1,2l8.3,0.7L41,2.1l-2,0.1l0.2,4.7C35,3,29.7,1,24,1
	C11.3,1,1,11.3,1,24h2C3,12.4,12.4,3,24.1,3z"/>
<path class="st0" d="M45,24L45,24c0,11.7-9.4,21.1-21,21.1c-5.3,0-10.3-2-14.2-5.5l4.9,0.4l0.1-2l-8.3-0.7L7,45.9l2-0.1l-0.2-4.6
	C12.9,44.9,18.4,47,24,47c12.7,0,23-10.3,23-23H45L45,24z"/>
</svg>
