<?xml version="1.0" encoding="utf-8"?>
<!-- Generator: Adobe Illustrator 19.0.1, SVG Export Plug-In . SVG Version: 6.00 Build 0)  -->
<svg version="1.1" id="Слой_1" xmlns="http://www.w3.org/2000/svg" xmlns:xlink="http://www.w3.org/1999/xlink" x="0px" y="0px"
	 width="57px" height="42px" viewBox="0 0 57 42" style="enable-background:new 0 0 57 42;" xml:space="preserve">
<style type="text/css">
	.st0{fill:none;}
</style>
<path class="st0" d="M3.4,5.7h50.3c1.3,0,2.4-1.1,2.4-2.4C56,2.1,54.9,1,53.6,1H3.4C2.1,1,1,2.1,1,3.4C1,4.6,2.1,5.7,3.4,5.7z"/>
<path class="st0" d="M3.4,23.4h50.3c1.3,0,2.4-1.1,2.4-2.4c0-1.3-1.1-2.4-2.4-2.4H3.4C2.1,18.6,1,19.7,1,21
	C1,22.3,2.1,23.4,3.4,23.4z"/>
<path class="st0" d="M3.4,41h50.3c1.3,0,2.4-1.1,2.4-2.4c0-1.3-1.1-2.4-2.4-2.4H3.4c-1.3,0-2.4,1.1-2.4,2.4C1,39.9,2.1,41,3.4,41z"
	/>
</svg>
