<?xml version="1.0" encoding="utf-8"?>
<!-- Generator: Adobe Illustrator 19.0.1, SVG Export Plug-In . SVG Version: 6.00 Build 0)  -->
<svg version="1.1" id="Слой_1" xmlns="http://www.w3.org/2000/svg" xmlns:xlink="http://www.w3.org/1999/xlink" x="0px" y="0px"
	 width="57px" height="53px" viewBox="0 0 57 53" style="enable-background:new 0 0 57 53;" xml:space="preserve">
<path class="st0" d="M55.6,1.3c-0.3-0.3-0.8-0.3-1.2-0.2L2.3,24.2c-0.9,0.3-1.4,1.2-1.3,2.2c0.1,1,0.6,1.8,1.5,2.1l15.2,5.1v13.9
	c0,1.3,0.8,2.4,2,2.7c1.2,0.4,2.5-0.1,3.3-1.1l6.4-9.3l13.5,11.8c0.4,0.3,0.9,0.5,1.5,0.5c0.3,0,0.5-0.1,0.7-0.1
	c0.8-0.3,1.4-0.9,1.5-1.7L56,2.4C56,2,55.9,1.6,55.6,1.3z M28.3,37.3l-7.1,10.4c-0.2,0.3-0.5,0.3-0.7,0.2c-0.1,0-0.4-0.2-0.4-0.5
	V32.8c0-0.5-0.3-0.9-0.8-1.1l-16-5.4L49.5,5.8l-22.8,19c-0.5,0.4-0.6,1.2-0.2,1.6c0.2,0.3,0.6,0.4,0.9,0.4c0.2,0,0.5-0.1,0.7-0.3
	L47.9,10L28.3,37.3z M44.4,49.7L30.7,37.8L52.6,7.6L44.4,49.7z"/>
<path class="st0" d="M23.6,27.3l-1.8,1.5c-0.5,0.4-0.6,1.2-0.2,1.6c0.2,0.3,0.6,0.4,0.9,0.4c0.2,0,0.5-0.1,0.7-0.2l1.8-1.5
	c0.5-0.4,0.6-1.2,0.2-1.6C24.9,27,24.2,27,23.6,27.3z"/>
</svg>
