<?xml version="1.0" encoding="utf-8"?>
<!-- Generated by IcoMoon.io -->
<!DOCTYPE svg PUBLIC "-//W3C//DTD SVG 1.1//EN" "http://www.w3.org/Graphics/SVG/1.1/DTD/svg11.dtd">
<svg version="1.1" xmlns="http://www.w3.org/2000/svg" xmlns:xlink="http://www.w3.org/1999/xlink" width="384" height="448" viewBox="0 0 384 448">
<path d="M256 224q0-26.5-18.75-45.25t-45.25-18.75-45.25 18.75-18.75 45.25 18.75 45.25 45.25 18.75 45.25-18.75 18.75-45.25zM290.5 224q0 41-28.75 69.75t-69.75 28.75-69.75-28.75-28.75-69.75 28.75-69.75 69.75-28.75 69.75 28.75 28.75 69.75zM317.5 121.5q0 9.5-6.75 16.25t-16.25 6.75-16.25-6.75-6.75-16.25 6.75-16.25 16.25-6.75 16.25 6.75 6.75 16.25zM192 66.5q-1.75 0-19.125-0.125t-26.375 0-24.125 0.75-25.75 2.5-17.875 4.625q-12.5 5-22 14.5t-14.5 22q-2.75 7.25-4.625 17.875t-2.5 25.75-0.75 24.125 0 26.375 0.125 19.125-0.125 19.125 0 26.375 0.75 24.125 2.5 25.75 4.625 17.875q5 12.5 14.5 22t22 14.5q7.25 2.75 17.875 4.625t25.75 2.5 24.125 0.75 26.375 0 19.125-0.125 19.125 0.125 26.375 0 24.125-0.75 25.75-2.5 17.875-4.625q12.5-5 22-14.5t14.5-22q2.75-7.25 4.625-17.875t2.5-25.75 0.75-24.125 0-26.375-0.125-19.125 0.125-19.125 0-26.375-0.75-24.125-2.5-25.75-4.625-17.875q-5-12.5-14.5-22t-22-14.5q-7.25-2.75-17.875-4.625t-25.75-2.5-24.125-0.75-26.375 0-19.125 0.125zM384 224q0 57.25-1.25 79.25-2.5 52-31 80.5t-80.5 31q-22 1.25-79.25 1.25t-79.25-1.25q-52-2.5-80.5-31t-31-80.5q-1.25-22-1.25-79.25t1.25-79.25q2.5-52 31-80.5t80.5-31q22-1.25 79.25-1.25t79.25 1.25q52 2.5 80.5 31t31 80.5q1.25 22 1.25 79.25z"></path>
</svg>
